<?xml version="1.0" encoding="utf-8" standalone="no"?>
<!DOCTYPE svg PUBLIC "-//W3C//DTD SVG 1.1//EN"
  "http://www.w3.org/Graphics/SVG/1.1/DTD/svg11.dtd">
<svg xmlns:xlink="http://www.w3.org/1999/xlink" width="144pt" height="144pt" viewBox="0 0 144 144" xmlns="http://www.w3.org/2000/svg" version="1.1">
 <metadata>
  <rdf:RDF xmlns:dc="http://purl.org/dc/elements/1.1/" xmlns:cc="http://creativecommons.org/ns#" xmlns:rdf="http://www.w3.org/1999/02/22-rdf-syntax-ns#">
   <cc:Work>
    <dc:type rdf:resource="http://purl.org/dc/dcmitype/StillImage"/>
    <dc:date>2025-01-22T11:58:06.621873</dc:date>
    <dc:format>image/svg+xml</dc:format>
    <dc:creator>
     <cc:Agent>
      <dc:title>Matplotlib v3.7.2, https://matplotlib.org/</dc:title>
     </cc:Agent>
    </dc:creator>
   </cc:Work>
  </rdf:RDF>
 </metadata>
 <defs>
  <style type="text/css">*{stroke-linejoin: round; stroke-linecap: butt}</style>
 </defs>
 <g id="figure_1">
  <g id="patch_1">
   <path d="M 0 144 
L 144 144 
L 144 0 
L 0 0 
z
" style="fill: #ffffff"/>
  </g>
  <g id="axes_1">
   <g id="patch_2">
    <path d="M 18 128.16 
L 129.6 128.16 
L 129.6 17.28 
L 18 17.28 
z
" style="fill: #ffffff"/>
   </g>
   <g id="matplotlib.axis_1">
    <g id="xtick_1">
     <g id="line2d_1">
      <defs>
       <path id="m300cbf2f47" d="M 0 0 
L 0 3.5 
" style="stroke: #262626; stroke-width: 0.8"/>
      </defs>
      <g>
       <use xlink:href="#m300cbf2f47" x="18.313896" y="128.16" style="fill: #262626; stroke: #262626; stroke-width: 0.8"/>
      </g>
     </g>
     <g id="text_1">
      <!-- 1.00 -->
      <g style="fill: #262626" transform="translate(8.583427 142.317813) scale(0.1 -0.1)">
       <defs>
        <path id="ArialMT-31" d="M 2384 0 
L 1822 0 
L 1822 3584 
Q 1619 3391 1289 3197 
Q 959 3003 697 2906 
L 697 3450 
Q 1169 3672 1522 3987 
Q 1875 4303 2022 4600 
L 2384 4600 
L 2384 0 
z
" transform="scale(0.015625)"/>
        <path id="ArialMT-2e" d="M 581 0 
L 581 641 
L 1222 641 
L 1222 0 
L 581 0 
z
" transform="scale(0.015625)"/>
        <path id="ArialMT-30" d="M 266 2259 
Q 266 3072 433 3567 
Q 600 4063 929 4331 
Q 1259 4600 1759 4600 
Q 2128 4600 2406 4451 
Q 2684 4303 2865 4023 
Q 3047 3744 3150 3342 
Q 3253 2941 3253 2259 
Q 3253 1453 3087 958 
Q 2922 463 2592 192 
Q 2263 -78 1759 -78 
Q 1097 -78 719 397 
Q 266 969 266 2259 
z
M 844 2259 
Q 844 1131 1108 757 
Q 1372 384 1759 384 
Q 2147 384 2411 759 
Q 2675 1134 2675 2259 
Q 2675 3391 2411 3762 
Q 2147 4134 1753 4134 
Q 1366 4134 1134 3806 
Q 844 3388 844 2259 
z
" transform="scale(0.015625)"/>
       </defs>
       <use xlink:href="#ArialMT-31"/>
       <use xlink:href="#ArialMT-2e" x="55.615234"/>
       <use xlink:href="#ArialMT-30" x="83.398438"/>
       <use xlink:href="#ArialMT-30" x="139.013672"/>
      </g>
     </g>
    </g>
    <g id="xtick_2">
     <g id="line2d_2">
      <g>
       <use xlink:href="#m300cbf2f47" x="44.215611" y="128.16" style="fill: #262626; stroke: #262626; stroke-width: 0.8"/>
      </g>
     </g>
     <g id="text_2">
      <!-- 1.75 -->
      <g style="fill: #262626" transform="translate(34.485142 142.317813) scale(0.1 -0.1)">
       <defs>
        <path id="ArialMT-37" d="M 303 3981 
L 303 4522 
L 3269 4522 
L 3269 4084 
Q 2831 3619 2401 2847 
Q 1972 2075 1738 1259 
Q 1569 684 1522 0 
L 944 0 
Q 953 541 1156 1306 
Q 1359 2072 1739 2783 
Q 2119 3494 2547 3981 
L 303 3981 
z
" transform="scale(0.015625)"/>
        <path id="ArialMT-35" d="M 266 1200 
L 856 1250 
Q 922 819 1161 601 
Q 1400 384 1738 384 
Q 2144 384 2425 690 
Q 2706 997 2706 1503 
Q 2706 1984 2436 2262 
Q 2166 2541 1728 2541 
Q 1456 2541 1237 2417 
Q 1019 2294 894 2097 
L 366 2166 
L 809 4519 
L 3088 4519 
L 3088 3981 
L 1259 3981 
L 1013 2750 
Q 1425 3038 1878 3038 
Q 2478 3038 2890 2622 
Q 3303 2206 3303 1553 
Q 3303 931 2941 478 
Q 2500 -78 1738 -78 
Q 1113 -78 717 272 
Q 322 622 266 1200 
z
" transform="scale(0.015625)"/>
       </defs>
       <use xlink:href="#ArialMT-31"/>
       <use xlink:href="#ArialMT-2e" x="55.615234"/>
       <use xlink:href="#ArialMT-37" x="83.398438"/>
       <use xlink:href="#ArialMT-35" x="139.013672"/>
      </g>
     </g>
    </g>
    <g id="xtick_3">
     <g id="line2d_3">
      <g>
       <use xlink:href="#m300cbf2f47" x="70.117327" y="128.16" style="fill: #262626; stroke: #262626; stroke-width: 0.8"/>
      </g>
     </g>
     <g id="text_3">
      <!-- 2.50 -->
      <g style="fill: #262626" transform="translate(60.386858 142.317813) scale(0.1 -0.1)">
       <defs>
        <path id="ArialMT-32" d="M 3222 541 
L 3222 0 
L 194 0 
Q 188 203 259 391 
Q 375 700 629 1000 
Q 884 1300 1366 1694 
Q 2113 2306 2375 2664 
Q 2638 3022 2638 3341 
Q 2638 3675 2398 3904 
Q 2159 4134 1775 4134 
Q 1369 4134 1125 3890 
Q 881 3647 878 3216 
L 300 3275 
Q 359 3922 746 4261 
Q 1134 4600 1788 4600 
Q 2447 4600 2831 4234 
Q 3216 3869 3216 3328 
Q 3216 3053 3103 2787 
Q 2991 2522 2730 2228 
Q 2469 1934 1863 1422 
Q 1356 997 1212 845 
Q 1069 694 975 541 
L 3222 541 
z
" transform="scale(0.015625)"/>
       </defs>
       <use xlink:href="#ArialMT-32"/>
       <use xlink:href="#ArialMT-2e" x="55.615234"/>
       <use xlink:href="#ArialMT-35" x="83.398438"/>
       <use xlink:href="#ArialMT-30" x="139.013672"/>
      </g>
     </g>
    </g>
    <g id="xtick_4">
     <g id="line2d_4">
      <g>
       <use xlink:href="#m300cbf2f47" x="96.019042" y="128.16" style="fill: #262626; stroke: #262626; stroke-width: 0.8"/>
      </g>
     </g>
     <g id="text_4">
      <!-- 3.25 -->
      <g style="fill: #262626" transform="translate(86.288574 142.317813) scale(0.1 -0.1)">
       <defs>
        <path id="ArialMT-33" d="M 269 1209 
L 831 1284 
Q 928 806 1161 595 
Q 1394 384 1728 384 
Q 2125 384 2398 659 
Q 2672 934 2672 1341 
Q 2672 1728 2419 1979 
Q 2166 2231 1775 2231 
Q 1616 2231 1378 2169 
L 1441 2663 
Q 1497 2656 1531 2656 
Q 1891 2656 2178 2843 
Q 2466 3031 2466 3422 
Q 2466 3731 2256 3934 
Q 2047 4138 1716 4138 
Q 1388 4138 1169 3931 
Q 950 3725 888 3313 
L 325 3413 
Q 428 3978 793 4289 
Q 1159 4600 1703 4600 
Q 2078 4600 2393 4439 
Q 2709 4278 2876 4000 
Q 3044 3722 3044 3409 
Q 3044 3113 2884 2869 
Q 2725 2625 2413 2481 
Q 2819 2388 3044 2092 
Q 3269 1797 3269 1353 
Q 3269 753 2831 336 
Q 2394 -81 1725 -81 
Q 1122 -81 723 278 
Q 325 638 269 1209 
z
" transform="scale(0.015625)"/>
       </defs>
       <use xlink:href="#ArialMT-33"/>
       <use xlink:href="#ArialMT-2e" x="55.615234"/>
       <use xlink:href="#ArialMT-32" x="83.398438"/>
       <use xlink:href="#ArialMT-35" x="139.013672"/>
      </g>
     </g>
    </g>
    <g id="xtick_5">
     <g id="line2d_5">
      <g>
       <use xlink:href="#m300cbf2f47" x="121.920758" y="128.16" style="fill: #262626; stroke: #262626; stroke-width: 0.8"/>
      </g>
     </g>
     <g id="text_5">
      <!-- 4.00 -->
      <g style="fill: #262626" transform="translate(112.190289 142.317813) scale(0.1 -0.1)">
       <defs>
        <path id="ArialMT-34" d="M 2069 0 
L 2069 1097 
L 81 1097 
L 81 1613 
L 2172 4581 
L 2631 4581 
L 2631 1613 
L 3250 1613 
L 3250 1097 
L 2631 1097 
L 2631 0 
L 2069 0 
z
M 2069 1613 
L 2069 3678 
L 634 1613 
L 2069 1613 
z
" transform="scale(0.015625)"/>
       </defs>
       <use xlink:href="#ArialMT-34"/>
       <use xlink:href="#ArialMT-2e" x="55.615234"/>
       <use xlink:href="#ArialMT-30" x="83.398438"/>
       <use xlink:href="#ArialMT-30" x="139.013672"/>
      </g>
     </g>
    </g>
    <g id="text_6">
     <!-- GzB -->
     <g style="fill: #262626" transform="translate(64.075781 155.463125) scale(0.1 -0.1)">
      <defs>
       <path id="ArialMT-47" d="M 2638 1797 
L 2638 2334 
L 4578 2338 
L 4578 638 
Q 4131 281 3656 101 
Q 3181 -78 2681 -78 
Q 2006 -78 1454 211 
Q 903 500 622 1047 
Q 341 1594 341 2269 
Q 341 2938 620 3517 
Q 900 4097 1425 4378 
Q 1950 4659 2634 4659 
Q 3131 4659 3532 4498 
Q 3934 4338 4162 4050 
Q 4391 3763 4509 3300 
L 3963 3150 
Q 3859 3500 3706 3700 
Q 3553 3900 3268 4020 
Q 2984 4141 2638 4141 
Q 2222 4141 1919 4014 
Q 1616 3888 1430 3681 
Q 1244 3475 1141 3228 
Q 966 2803 966 2306 
Q 966 1694 1177 1281 
Q 1388 869 1791 669 
Q 2194 469 2647 469 
Q 3041 469 3416 620 
Q 3791 772 3984 944 
L 3984 1797 
L 2638 1797 
z
" transform="scale(0.015625)"/>
       <path id="ArialMT-7a" d="M 125 0 
L 125 456 
L 2238 2881 
Q 1878 2863 1603 2863 
L 250 2863 
L 250 3319 
L 2963 3319 
L 2963 2947 
L 1166 841 
L 819 456 
Q 1197 484 1528 484 
L 3063 484 
L 3063 0 
L 125 0 
z
" transform="scale(0.015625)"/>
       <path id="ArialMT-42" d="M 469 0 
L 469 4581 
L 2188 4581 
Q 2713 4581 3030 4442 
Q 3347 4303 3526 4014 
Q 3706 3725 3706 3409 
Q 3706 3116 3547 2856 
Q 3388 2597 3066 2438 
Q 3481 2316 3704 2022 
Q 3928 1728 3928 1328 
Q 3928 1006 3792 729 
Q 3656 453 3456 303 
Q 3256 153 2954 76 
Q 2653 0 2216 0 
L 469 0 
z
M 1075 2656 
L 2066 2656 
Q 2469 2656 2644 2709 
Q 2875 2778 2992 2937 
Q 3109 3097 3109 3338 
Q 3109 3566 3000 3739 
Q 2891 3913 2687 3977 
Q 2484 4041 1991 4041 
L 1075 4041 
L 1075 2656 
z
M 1075 541 
L 2216 541 
Q 2509 541 2628 563 
Q 2838 600 2978 687 
Q 3119 775 3209 942 
Q 3300 1109 3300 1328 
Q 3300 1584 3169 1773 
Q 3038 1963 2805 2039 
Q 2572 2116 2134 2116 
L 1075 2116 
L 1075 541 
z
" transform="scale(0.015625)"/>
      </defs>
      <use xlink:href="#ArialMT-47"/>
      <use xlink:href="#ArialMT-7a" x="77.783203"/>
      <use xlink:href="#ArialMT-42" x="127.783203"/>
     </g>
    </g>
   </g>
   <g id="matplotlib.axis_2">
    <g id="ytick_1">
     <g id="line2d_6">
      <defs>
       <path id="mc1be2bcef0" d="M 0 0 
L -3.5 0 
" style="stroke: #262626; stroke-width: 0.8"/>
      </defs>
      <g>
       <use xlink:href="#mc1be2bcef0" x="18" y="125.262812" style="fill: #262626; stroke: #262626; stroke-width: 0.8"/>
      </g>
     </g>
     <g id="text_7">
      <!-- 2.5 -->
      <g style="fill: #262626" transform="translate(-2.9 128.841718) scale(0.1 -0.1)">
       <use xlink:href="#ArialMT-32"/>
       <use xlink:href="#ArialMT-2e" x="55.615234"/>
       <use xlink:href="#ArialMT-35" x="83.398438"/>
      </g>
     </g>
    </g>
    <g id="ytick_2">
     <g id="line2d_7">
      <g>
       <use xlink:href="#mc1be2bcef0" x="18" y="88.03537" style="fill: #262626; stroke: #262626; stroke-width: 0.8"/>
      </g>
     </g>
     <g id="text_8">
      <!-- 3.0 -->
      <g style="fill: #262626" transform="translate(-2.9 91.614276) scale(0.1 -0.1)">
       <use xlink:href="#ArialMT-33"/>
       <use xlink:href="#ArialMT-2e" x="55.615234"/>
       <use xlink:href="#ArialMT-30" x="83.398438"/>
      </g>
     </g>
    </g>
    <g id="ytick_3">
     <g id="line2d_8">
      <g>
       <use xlink:href="#mc1be2bcef0" x="18" y="50.807928" style="fill: #262626; stroke: #262626; stroke-width: 0.8"/>
      </g>
     </g>
     <g id="text_9">
      <!-- 3.5 -->
      <g style="fill: #262626" transform="translate(-2.9 54.386834) scale(0.1 -0.1)">
       <use xlink:href="#ArialMT-33"/>
       <use xlink:href="#ArialMT-2e" x="55.615234"/>
       <use xlink:href="#ArialMT-35" x="83.398438"/>
      </g>
     </g>
    </g>
    <g id="text_10">
     <!-- RNA&lt;1(1) -->
     <g style="fill: #262626" transform="translate(-9.004688 95.087969) rotate(-90) scale(0.1 -0.1)">
      <defs>
       <path id="ArialMT-52" d="M 503 0 
L 503 4581 
L 2534 4581 
Q 3147 4581 3465 4457 
Q 3784 4334 3975 4021 
Q 4166 3709 4166 3331 
Q 4166 2844 3850 2509 
Q 3534 2175 2875 2084 
Q 3116 1969 3241 1856 
Q 3506 1613 3744 1247 
L 4541 0 
L 3778 0 
L 3172 953 
Q 2906 1366 2734 1584 
Q 2563 1803 2427 1890 
Q 2291 1978 2150 2013 
Q 2047 2034 1813 2034 
L 1109 2034 
L 1109 0 
L 503 0 
z
M 1109 2559 
L 2413 2559 
Q 2828 2559 3062 2645 
Q 3297 2731 3419 2920 
Q 3541 3109 3541 3331 
Q 3541 3656 3305 3865 
Q 3069 4075 2559 4075 
L 1109 4075 
L 1109 2559 
z
" transform="scale(0.015625)"/>
       <path id="ArialMT-4e" d="M 488 0 
L 488 4581 
L 1109 4581 
L 3516 984 
L 3516 4581 
L 4097 4581 
L 4097 0 
L 3475 0 
L 1069 3600 
L 1069 0 
L 488 0 
z
" transform="scale(0.015625)"/>
       <path id="ArialMT-41" d="M -9 0 
L 1750 4581 
L 2403 4581 
L 4278 0 
L 3588 0 
L 3053 1388 
L 1138 1388 
L 634 0 
L -9 0 
z
M 1313 1881 
L 2866 1881 
L 2388 3150 
Q 2169 3728 2063 4100 
Q 1975 3659 1816 3225 
L 1313 1881 
z
" transform="scale(0.015625)"/>
       <path id="ArialMT-3c" d="M 350 2003 
L 350 2528 
L 3384 3809 
L 3384 3250 
L 978 2263 
L 3384 1266 
L 3384 706 
L 350 2003 
z
" transform="scale(0.015625)"/>
       <path id="ArialMT-28" d="M 1497 -1347 
Q 1031 -759 709 28 
Q 388 816 388 1659 
Q 388 2403 628 3084 
Q 909 3875 1497 4659 
L 1900 4659 
Q 1522 4009 1400 3731 
Q 1209 3300 1100 2831 
Q 966 2247 966 1656 
Q 966 153 1900 -1347 
L 1497 -1347 
z
" transform="scale(0.015625)"/>
       <path id="ArialMT-29" d="M 791 -1347 
L 388 -1347 
Q 1322 153 1322 1656 
Q 1322 2244 1188 2822 
Q 1081 3291 891 3722 
Q 769 4003 388 4659 
L 791 4659 
Q 1378 3875 1659 3084 
Q 1900 2403 1900 1659 
Q 1900 816 1576 28 
Q 1253 -759 791 -1347 
z
" transform="scale(0.015625)"/>
      </defs>
      <use xlink:href="#ArialMT-52"/>
      <use xlink:href="#ArialMT-4e" x="72.216797"/>
      <use xlink:href="#ArialMT-41" x="144.433594"/>
      <use xlink:href="#ArialMT-3c" x="211.132812"/>
      <use xlink:href="#ArialMT-31" x="269.53125"/>
      <use xlink:href="#ArialMT-28" x="325.146484"/>
      <use xlink:href="#ArialMT-31" x="358.447266"/>
      <use xlink:href="#ArialMT-29" x="414.0625"/>
     </g>
    </g>
   </g>
   <g id="PathCollection_1">
    <defs>
     <path id="ma05eaef650" d="M 0 3 
C 0.795609 3 1.55874 2.683901 2.12132 2.12132 
C 2.683901 1.55874 3 0.795609 3 0 
C 3 -0.795609 2.683901 -1.55874 2.12132 -2.12132 
C 1.55874 -2.683901 0.795609 -3 0 -3 
C -0.795609 -3 -1.55874 -2.683901 -2.12132 -2.12132 
C -2.683901 -1.55874 -3 -0.795609 -3 0 
C -3 0.795609 -2.683901 1.55874 -2.12132 2.12132 
C -1.55874 2.683901 -0.795609 3 0 3 
z
" style="stroke: #9467bd; stroke-opacity: 0.8"/>
    </defs>
    <g clip-path="url(#pf742804f18)">
     <use xlink:href="#ma05eaef650" x="53.312157" y="74.168147" style="fill: #9467bd; fill-opacity: 0.8; stroke: #9467bd; stroke-opacity: 0.8"/>
     <use xlink:href="#ma05eaef650" x="39.185582" y="83.815267" style="fill: #9467bd; fill-opacity: 0.8; stroke: #9467bd; stroke-opacity: 0.8"/>
     <use xlink:href="#ma05eaef650" x="41.974299" y="22.32" style="fill: #9467bd; fill-opacity: 0.8; stroke: #9467bd; stroke-opacity: 0.8"/>
     <use xlink:href="#ma05eaef650" x="42.229605" y="123.12" style="fill: #9467bd; fill-opacity: 0.8; stroke: #9467bd; stroke-opacity: 0.8"/>
     <use xlink:href="#ma05eaef650" x="23.072727" y="79.903407" style="fill: #9467bd; fill-opacity: 0.8; stroke: #9467bd; stroke-opacity: 0.8"/>
     <use xlink:href="#ma05eaef650" x="46.246713" y="78.727765" style="fill: #9467bd; fill-opacity: 0.8; stroke: #9467bd; stroke-opacity: 0.8"/>
     <use xlink:href="#ma05eaef650" x="46.948945" y="71.237603" style="fill: #9467bd; fill-opacity: 0.8; stroke: #9467bd; stroke-opacity: 0.8"/>
     <use xlink:href="#ma05eaef650" x="41.044616" y="87.743506" style="fill: #9467bd; fill-opacity: 0.8; stroke: #9467bd; stroke-opacity: 0.8"/>
     <use xlink:href="#ma05eaef650" x="66.422815" y="70.969566" style="fill: #9467bd; fill-opacity: 0.8; stroke: #9467bd; stroke-opacity: 0.8"/>
     <use xlink:href="#ma05eaef650" x="49.508354" y="82.523475" style="fill: #9467bd; fill-opacity: 0.8; stroke: #9467bd; stroke-opacity: 0.8"/>
     <use xlink:href="#ma05eaef650" x="124.527273" y="71.198887" style="fill: #9467bd; fill-opacity: 0.8; stroke: #9467bd; stroke-opacity: 0.8"/>
     <use xlink:href="#ma05eaef650" x="49.078123" y="64.226931" style="fill: #9467bd; fill-opacity: 0.8; stroke: #9467bd; stroke-opacity: 0.8"/>
     <use xlink:href="#ma05eaef650" x="86.412914" y="62.728155" style="fill: #9467bd; fill-opacity: 0.8; stroke: #9467bd; stroke-opacity: 0.8"/>
     <use xlink:href="#ma05eaef650" x="31.917586" y="77.526807" style="fill: #9467bd; fill-opacity: 0.8; stroke: #9467bd; stroke-opacity: 0.8"/>
     <use xlink:href="#ma05eaef650" x="34.281034" y="96.83966" style="fill: #9467bd; fill-opacity: 0.8; stroke: #9467bd; stroke-opacity: 0.8"/>
     <use xlink:href="#ma05eaef650" x="23.548565" y="93.623209" style="fill: #9467bd; fill-opacity: 0.8; stroke: #9467bd; stroke-opacity: 0.8"/>
     <use xlink:href="#ma05eaef650" x="62.653986" y="76.063769" style="fill: #9467bd; fill-opacity: 0.8; stroke: #9467bd; stroke-opacity: 0.8"/>
    </g>
   </g>
   <g id="PolyCollection_1">
    <defs>
     <path id="m8ee04710ee" d="M 23.072727 -74.847312 
L 23.072727 -46.079261 
L 24.097521 -46.613174 
L 25.122314 -47.149459 
L 26.147107 -47.689976 
L 27.171901 -48.352621 
L 28.196694 -48.85299 
L 29.221488 -49.461733 
L 30.246281 -49.862956 
L 31.271074 -50.498385 
L 32.295868 -51.131696 
L 33.320661 -51.656273 
L 34.345455 -52.137731 
L 35.370248 -52.535267 
L 36.395041 -52.952482 
L 37.419835 -53.22295 
L 38.444628 -53.668325 
L 39.469421 -54.231784 
L 40.494215 -54.641818 
L 41.519008 -55.049678 
L 42.543802 -55.479282 
L 43.568595 -55.865888 
L 44.593388 -56.342818 
L 45.618182 -56.694866 
L 46.642975 -57.087208 
L 47.667769 -57.535609 
L 48.692562 -57.905147 
L 49.717355 -58.218985 
L 50.742149 -58.634555 
L 51.766942 -58.972447 
L 52.791736 -59.259143 
L 53.816529 -59.520494 
L 54.841322 -59.793956 
L 55.866116 -60.12447 
L 56.890909 -60.412194 
L 57.915702 -60.710016 
L 58.940496 -61.028699 
L 59.965289 -61.289821 
L 60.990083 -61.6612 
L 62.014876 -61.854105 
L 63.039669 -62.142132 
L 64.064463 -62.518887 
L 65.089256 -62.837791 
L 66.11405 -63.089119 
L 67.138843 -63.340256 
L 68.163636 -63.551902 
L 69.18843 -63.762535 
L 70.213223 -64.000612 
L 71.238017 -64.210022 
L 72.26281 -64.400923 
L 73.287603 -64.612277 
L 74.312397 -64.823631 
L 75.33719 -65.034985 
L 76.361983 -65.246339 
L 77.386777 -65.457694 
L 78.41157 -65.670961 
L 79.436364 -65.884778 
L 80.461157 -66.135994 
L 81.48595 -66.349871 
L 82.510744 -66.56372 
L 83.535537 -66.793702 
L 84.560331 -66.990147 
L 85.585124 -67.203685 
L 86.609917 -67.397266 
L 87.634711 -67.579901 
L 88.659504 -67.791897 
L 89.684298 -68.016696 
L 90.709091 -68.25777 
L 91.733884 -68.484914 
L 92.758678 -68.671295 
L 93.783471 -68.866693 
L 94.808264 -69.125529 
L 95.833058 -69.339067 
L 96.857851 -69.552605 
L 97.882645 -69.766143 
L 98.907438 -69.944338 
L 99.932231 -70.123429 
L 100.957025 -70.335298 
L 101.981818 -70.545298 
L 103.006612 -70.758367 
L 104.031405 -70.949799 
L 105.056198 -71.027772 
L 106.080992 -71.187387 
L 107.105785 -71.348232 
L 108.130579 -71.541333 
L 109.155372 -71.685385 
L 110.180165 -71.826926 
L 111.204959 -72.006747 
L 112.229752 -72.14598 
L 113.254545 -72.304789 
L 114.279339 -72.464397 
L 115.304132 -72.603339 
L 116.328926 -72.72565 
L 117.353719 -72.809325 
L 118.378512 -72.902068 
L 119.403306 -72.983818 
L 120.428099 -73.013609 
L 121.452893 -73.096044 
L 122.477686 -73.087496 
L 123.502479 -73.18117 
L 124.527273 -73.318118 
L 124.527273 -109.078609 
L 124.527273 -109.078609 
L 123.502479 -108.432452 
L 122.477686 -107.887362 
L 121.452893 -107.380264 
L 120.428099 -106.873167 
L 119.403306 -106.264105 
L 118.378512 -105.553063 
L 117.353719 -104.842021 
L 116.328926 -104.147875 
L 115.304132 -103.574958 
L 114.279339 -103.067702 
L 113.254545 -102.514087 
L 112.229752 -101.895481 
L 111.204959 -101.261083 
L 110.180165 -100.699982 
L 109.155372 -100.14069 
L 108.130579 -99.683932 
L 107.105785 -99.200408 
L 106.080992 -98.676691 
L 105.056198 -98.117907 
L 104.031405 -97.631083 
L 103.006612 -97.167032 
L 101.981818 -96.584905 
L 100.957025 -95.999535 
L 99.932231 -95.409807 
L 98.907438 -94.819561 
L 97.882645 -94.229316 
L 96.857851 -93.634407 
L 95.833058 -92.978904 
L 94.808264 -92.444059 
L 93.783471 -91.914392 
L 92.758678 -91.386749 
L 91.733884 -90.859107 
L 90.709091 -90.32793 
L 89.684298 -89.772731 
L 88.659504 -89.267746 
L 87.634711 -88.737829 
L 86.609917 -88.343207 
L 85.585124 -87.914942 
L 84.560331 -87.452288 
L 83.535537 -86.989633 
L 82.510744 -86.526979 
L 81.48595 -86.064324 
L 80.461157 -85.600086 
L 79.436364 -85.129096 
L 78.41157 -84.66462 
L 77.386777 -83.953879 
L 76.361983 -83.362841 
L 75.33719 -82.997477 
L 74.312397 -82.648986 
L 73.287603 -82.319703 
L 72.26281 -81.903794 
L 71.238017 -81.541204 
L 70.213223 -81.140179 
L 69.18843 -80.722287 
L 68.163636 -80.452612 
L 67.138843 -80.169783 
L 66.11405 -79.956528 
L 65.089256 -79.630732 
L 64.064463 -79.358442 
L 63.039669 -79.061733 
L 62.014876 -78.679212 
L 60.990083 -78.548906 
L 59.965289 -78.228754 
L 58.940496 -77.845327 
L 57.915702 -77.511495 
L 56.890909 -77.343009 
L 55.866116 -77.315472 
L 54.841322 -77.024002 
L 53.816529 -76.998815 
L 52.791736 -76.968653 
L 51.766942 -76.738909 
L 50.742149 -76.518197 
L 49.717355 -76.305055 
L 48.692562 -76.279172 
L 47.667769 -76.071749 
L 46.642975 -75.904563 
L 45.618182 -75.622904 
L 44.593388 -75.725815 
L 43.568595 -75.865679 
L 42.543802 -75.677782 
L 41.519008 -75.492651 
L 40.494215 -75.311356 
L 39.469421 -75.272178 
L 38.444628 -75.241842 
L 37.419835 -75.209947 
L 36.395041 -75.175012 
L 35.370248 -74.987627 
L 34.345455 -74.88982 
L 33.320661 -74.885424 
L 32.295868 -74.882273 
L 31.271074 -74.913053 
L 30.246281 -74.953317 
L 29.221488 -74.955111 
L 28.196694 -74.925354 
L 27.171901 -74.895598 
L 26.147107 -74.865841 
L 25.122314 -74.858854 
L 24.097521 -74.850728 
L 23.072727 -74.847312 
z
" style="stroke: #ffffff; stroke-opacity: 0.15"/>
    </defs>
    <g clip-path="url(#pf742804f18)">
     <use xlink:href="#m8ee04710ee" x="0" y="144" style="fill: #9467bd; fill-opacity: 0.15; stroke: #ffffff; stroke-opacity: 0.15"/>
    </g>
   </g>
   <g id="line2d_9">
    <path d="M 23.072727 83.143539 
L 24.097521 82.932742 
L 25.122314 82.721945 
L 26.147107 82.511149 
L 27.171901 82.300352 
L 28.196694 82.089555 
L 29.221488 81.878759 
L 30.246281 81.667962 
L 31.271074 81.457165 
L 32.295868 81.246368 
L 33.320661 81.035572 
L 34.345455 80.824775 
L 35.370248 80.613978 
L 36.395041 80.403182 
L 37.419835 80.192385 
L 38.444628 79.981588 
L 39.469421 79.770792 
L 40.494215 79.559995 
L 41.519008 79.349198 
L 42.543802 79.138401 
L 43.568595 78.927605 
L 44.593388 78.716808 
L 45.618182 78.506011 
L 46.642975 78.295215 
L 47.667769 78.084418 
L 48.692562 77.873621 
L 49.717355 77.662825 
L 50.742149 77.452028 
L 51.766942 77.241231 
L 52.791736 77.030435 
L 53.816529 76.819638 
L 54.841322 76.608841 
L 55.866116 76.398044 
L 56.890909 76.187248 
L 57.915702 75.976451 
L 58.940496 75.765654 
L 59.965289 75.554858 
L 60.990083 75.344061 
L 62.014876 75.133264 
L 63.039669 74.922468 
L 64.064463 74.711671 
L 65.089256 74.500874 
L 66.11405 74.290078 
L 67.138843 74.079281 
L 68.163636 73.868484 
L 69.18843 73.657687 
L 70.213223 73.446891 
L 71.238017 73.236094 
L 72.26281 73.025297 
L 73.287603 72.814501 
L 74.312397 72.603704 
L 75.33719 72.392907 
L 76.361983 72.182111 
L 77.386777 71.971314 
L 78.41157 71.760517 
L 79.436364 71.54972 
L 80.461157 71.338924 
L 81.48595 71.128127 
L 82.510744 70.91733 
L 83.535537 70.706534 
L 84.560331 70.495737 
L 85.585124 70.28494 
L 86.609917 70.074144 
L 87.634711 69.863347 
L 88.659504 69.65255 
L 89.684298 69.441754 
L 90.709091 69.230957 
L 91.733884 69.02016 
L 92.758678 68.809363 
L 93.783471 68.598567 
L 94.808264 68.38777 
L 95.833058 68.176973 
L 96.857851 67.966177 
L 97.882645 67.75538 
L 98.907438 67.544583 
L 99.932231 67.333787 
L 100.957025 67.12299 
L 101.981818 66.912193 
L 103.006612 66.701397 
L 104.031405 66.4906 
L 105.056198 66.279803 
L 106.080992 66.069006 
L 107.105785 65.85821 
L 108.130579 65.647413 
L 109.155372 65.436616 
L 110.180165 65.22582 
L 111.204959 65.015023 
L 112.229752 64.804226 
L 113.254545 64.59343 
L 114.279339 64.382633 
L 115.304132 64.171836 
L 116.328926 63.961039 
L 117.353719 63.750243 
L 118.378512 63.539446 
L 119.403306 63.328649 
L 120.428099 63.117853 
L 121.452893 62.907056 
L 122.477686 62.696259 
L 123.502479 62.485463 
L 124.527273 62.274666 
" clip-path="url(#pf742804f18)" style="fill: none; stroke: #9467bd; stroke-width: 2.25; stroke-linecap: round"/>
   </g>
   <g id="patch_3">
    <path d="M 18 128.16 
L 18 17.28 
" style="fill: none; stroke: #262626; stroke-width: 0.8; stroke-linejoin: miter; stroke-linecap: square"/>
   </g>
   <g id="patch_4">
    <path d="M 129.6 128.16 
L 129.6 17.28 
" style="fill: none; stroke: #262626; stroke-width: 0.8; stroke-linejoin: miter; stroke-linecap: square"/>
   </g>
   <g id="patch_5">
    <path d="M 18 128.16 
L 129.6 128.16 
" style="fill: none; stroke: #262626; stroke-width: 0.8; stroke-linejoin: miter; stroke-linecap: square"/>
   </g>
   <g id="patch_6">
    <path d="M 18 17.28 
L 129.6 17.28 
" style="fill: none; stroke: #262626; stroke-width: 0.8; stroke-linejoin: miter; stroke-linecap: square"/>
   </g>
   <g id="text_11">
    <!-- rho=0.6, p=0.0104 -->
    <g style="fill: #262626" transform="translate(32.128144 43.362439) scale(0.1 -0.1)">
     <defs>
      <path id="ArialMT-72" d="M 416 0 
L 416 3319 
L 922 3319 
L 922 2816 
Q 1116 3169 1280 3281 
Q 1444 3394 1641 3394 
Q 1925 3394 2219 3213 
L 2025 2691 
Q 1819 2813 1613 2813 
Q 1428 2813 1281 2702 
Q 1134 2591 1072 2394 
Q 978 2094 978 1738 
L 978 0 
L 416 0 
z
" transform="scale(0.015625)"/>
      <path id="ArialMT-68" d="M 422 0 
L 422 4581 
L 984 4581 
L 984 2938 
Q 1378 3394 1978 3394 
Q 2347 3394 2619 3248 
Q 2891 3103 3008 2847 
Q 3125 2591 3125 2103 
L 3125 0 
L 2563 0 
L 2563 2103 
Q 2563 2525 2380 2717 
Q 2197 2909 1863 2909 
Q 1613 2909 1392 2779 
Q 1172 2650 1078 2428 
Q 984 2206 984 1816 
L 984 0 
L 422 0 
z
" transform="scale(0.015625)"/>
      <path id="ArialMT-6f" d="M 213 1659 
Q 213 2581 725 3025 
Q 1153 3394 1769 3394 
Q 2453 3394 2887 2945 
Q 3322 2497 3322 1706 
Q 3322 1066 3130 698 
Q 2938 331 2570 128 
Q 2203 -75 1769 -75 
Q 1072 -75 642 372 
Q 213 819 213 1659 
z
M 791 1659 
Q 791 1022 1069 705 
Q 1347 388 1769 388 
Q 2188 388 2466 706 
Q 2744 1025 2744 1678 
Q 2744 2294 2464 2611 
Q 2184 2928 1769 2928 
Q 1347 2928 1069 2612 
Q 791 2297 791 1659 
z
" transform="scale(0.015625)"/>
      <path id="ArialMT-3d" d="M 3381 2694 
L 356 2694 
L 356 3219 
L 3381 3219 
L 3381 2694 
z
M 3381 1303 
L 356 1303 
L 356 1828 
L 3381 1828 
L 3381 1303 
z
" transform="scale(0.015625)"/>
      <path id="ArialMT-36" d="M 3184 3459 
L 2625 3416 
Q 2550 3747 2413 3897 
Q 2184 4138 1850 4138 
Q 1581 4138 1378 3988 
Q 1113 3794 959 3422 
Q 806 3050 800 2363 
Q 1003 2672 1297 2822 
Q 1591 2972 1913 2972 
Q 2475 2972 2870 2558 
Q 3266 2144 3266 1488 
Q 3266 1056 3080 686 
Q 2894 316 2569 119 
Q 2244 -78 1831 -78 
Q 1128 -78 684 439 
Q 241 956 241 2144 
Q 241 3472 731 4075 
Q 1159 4600 1884 4600 
Q 2425 4600 2770 4297 
Q 3116 3994 3184 3459 
z
M 888 1484 
Q 888 1194 1011 928 
Q 1134 663 1356 523 
Q 1578 384 1822 384 
Q 2178 384 2434 671 
Q 2691 959 2691 1453 
Q 2691 1928 2437 2201 
Q 2184 2475 1800 2475 
Q 1419 2475 1153 2201 
Q 888 1928 888 1484 
z
" transform="scale(0.015625)"/>
      <path id="ArialMT-2c" d="M 569 0 
L 569 641 
L 1209 641 
L 1209 0 
Q 1209 -353 1084 -570 
Q 959 -788 688 -906 
L 531 -666 
Q 709 -588 793 -436 
Q 878 -284 888 0 
L 569 0 
z
" transform="scale(0.015625)"/>
      <path id="ArialMT-20" transform="scale(0.015625)"/>
      <path id="ArialMT-70" d="M 422 -1272 
L 422 3319 
L 934 3319 
L 934 2888 
Q 1116 3141 1344 3267 
Q 1572 3394 1897 3394 
Q 2322 3394 2647 3175 
Q 2972 2956 3137 2557 
Q 3303 2159 3303 1684 
Q 3303 1175 3120 767 
Q 2938 359 2589 142 
Q 2241 -75 1856 -75 
Q 1575 -75 1351 44 
Q 1128 163 984 344 
L 984 -1272 
L 422 -1272 
z
M 931 1641 
Q 931 1000 1190 694 
Q 1450 388 1819 388 
Q 2194 388 2461 705 
Q 2728 1022 2728 1688 
Q 2728 2322 2467 2637 
Q 2206 2953 1844 2953 
Q 1484 2953 1207 2617 
Q 931 2281 931 1641 
z
" transform="scale(0.015625)"/>
     </defs>
     <use xlink:href="#ArialMT-72"/>
     <use xlink:href="#ArialMT-68" x="33.300781"/>
     <use xlink:href="#ArialMT-6f" x="88.916016"/>
     <use xlink:href="#ArialMT-3d" x="144.53125"/>
     <use xlink:href="#ArialMT-30" x="202.929688"/>
     <use xlink:href="#ArialMT-2e" x="258.544922"/>
     <use xlink:href="#ArialMT-36" x="286.328125"/>
     <use xlink:href="#ArialMT-2c" x="341.943359"/>
     <use xlink:href="#ArialMT-20" x="369.726562"/>
     <use xlink:href="#ArialMT-70" x="397.509766"/>
     <use xlink:href="#ArialMT-3d" x="453.125"/>
     <use xlink:href="#ArialMT-30" x="511.523438"/>
     <use xlink:href="#ArialMT-2e" x="567.138672"/>
     <use xlink:href="#ArialMT-30" x="594.921875"/>
     <use xlink:href="#ArialMT-31" x="650.537109"/>
     <use xlink:href="#ArialMT-30" x="706.152344"/>
     <use xlink:href="#ArialMT-34" x="761.767578"/>
    </g>
   </g>
  </g>
 </g>
 <defs>
  <clipPath id="pf742804f18">
   <rect x="18" y="17.28" width="111.6" height="110.88"/>
  </clipPath>
 </defs>
</svg>
