<?xml version="1.0" encoding="utf-8" standalone="no"?>
<!DOCTYPE svg PUBLIC "-//W3C//DTD SVG 1.1//EN"
  "http://www.w3.org/Graphics/SVG/1.1/DTD/svg11.dtd">
<svg xmlns:xlink="http://www.w3.org/1999/xlink" width="144pt" height="144pt" viewBox="0 0 144 144" xmlns="http://www.w3.org/2000/svg" version="1.1">
 <metadata>
  <rdf:RDF xmlns:dc="http://purl.org/dc/elements/1.1/" xmlns:cc="http://creativecommons.org/ns#" xmlns:rdf="http://www.w3.org/1999/02/22-rdf-syntax-ns#">
   <cc:Work>
    <dc:type rdf:resource="http://purl.org/dc/dcmitype/StillImage"/>
    <dc:date>2025-01-22T11:58:07.157859</dc:date>
    <dc:format>image/svg+xml</dc:format>
    <dc:creator>
     <cc:Agent>
      <dc:title>Matplotlib v3.7.2, https://matplotlib.org/</dc:title>
     </cc:Agent>
    </dc:creator>
   </cc:Work>
  </rdf:RDF>
 </metadata>
 <defs>
  <style type="text/css">*{stroke-linejoin: round; stroke-linecap: butt}</style>
 </defs>
 <g id="figure_1">
  <g id="patch_1">
   <path d="M 0 144 
L 144 144 
L 144 0 
L 0 0 
z
" style="fill: #ffffff"/>
  </g>
  <g id="axes_1">
   <g id="patch_2">
    <path d="M 18 128.16 
L 129.6 128.16 
L 129.6 17.28 
L 18 17.28 
z
" style="fill: #ffffff"/>
   </g>
   <g id="matplotlib.axis_1">
    <g id="xtick_1">
     <g id="line2d_1">
      <defs>
       <path id="m5e42c2f7a9" d="M 0 0 
L 0 3.5 
" style="stroke: #262626; stroke-width: 0.8"/>
      </defs>
      <g>
       <use xlink:href="#m5e42c2f7a9" x="18.857914" y="128.16" style="fill: #262626; stroke: #262626; stroke-width: 0.8"/>
      </g>
     </g>
     <g id="text_1">
      <!-- 0.00 -->
      <g style="fill: #262626" transform="translate(9.127445 142.317813) scale(0.1 -0.1)">
       <defs>
        <path id="ArialMT-30" d="M 266 2259 
Q 266 3072 433 3567 
Q 600 4063 929 4331 
Q 1259 4600 1759 4600 
Q 2128 4600 2406 4451 
Q 2684 4303 2865 4023 
Q 3047 3744 3150 3342 
Q 3253 2941 3253 2259 
Q 3253 1453 3087 958 
Q 2922 463 2592 192 
Q 2263 -78 1759 -78 
Q 1097 -78 719 397 
Q 266 969 266 2259 
z
M 844 2259 
Q 844 1131 1108 757 
Q 1372 384 1759 384 
Q 2147 384 2411 759 
Q 2675 1134 2675 2259 
Q 2675 3391 2411 3762 
Q 2147 4134 1753 4134 
Q 1366 4134 1134 3806 
Q 844 3388 844 2259 
z
" transform="scale(0.015625)"/>
        <path id="ArialMT-2e" d="M 581 0 
L 581 641 
L 1222 641 
L 1222 0 
L 581 0 
z
" transform="scale(0.015625)"/>
       </defs>
       <use xlink:href="#ArialMT-30"/>
       <use xlink:href="#ArialMT-2e" x="55.615234"/>
       <use xlink:href="#ArialMT-30" x="83.398438"/>
       <use xlink:href="#ArialMT-30" x="139.013672"/>
      </g>
     </g>
    </g>
    <g id="xtick_2">
     <g id="line2d_2">
      <g>
       <use xlink:href="#m5e42c2f7a9" x="46.543436" y="128.16" style="fill: #262626; stroke: #262626; stroke-width: 0.8"/>
      </g>
     </g>
     <g id="text_2">
      <!-- 0.25 -->
      <g style="fill: #262626" transform="translate(36.812967 142.317813) scale(0.1 -0.1)">
       <defs>
        <path id="ArialMT-32" d="M 3222 541 
L 3222 0 
L 194 0 
Q 188 203 259 391 
Q 375 700 629 1000 
Q 884 1300 1366 1694 
Q 2113 2306 2375 2664 
Q 2638 3022 2638 3341 
Q 2638 3675 2398 3904 
Q 2159 4134 1775 4134 
Q 1369 4134 1125 3890 
Q 881 3647 878 3216 
L 300 3275 
Q 359 3922 746 4261 
Q 1134 4600 1788 4600 
Q 2447 4600 2831 4234 
Q 3216 3869 3216 3328 
Q 3216 3053 3103 2787 
Q 2991 2522 2730 2228 
Q 2469 1934 1863 1422 
Q 1356 997 1212 845 
Q 1069 694 975 541 
L 3222 541 
z
" transform="scale(0.015625)"/>
        <path id="ArialMT-35" d="M 266 1200 
L 856 1250 
Q 922 819 1161 601 
Q 1400 384 1738 384 
Q 2144 384 2425 690 
Q 2706 997 2706 1503 
Q 2706 1984 2436 2262 
Q 2166 2541 1728 2541 
Q 1456 2541 1237 2417 
Q 1019 2294 894 2097 
L 366 2166 
L 809 4519 
L 3088 4519 
L 3088 3981 
L 1259 3981 
L 1013 2750 
Q 1425 3038 1878 3038 
Q 2478 3038 2890 2622 
Q 3303 2206 3303 1553 
Q 3303 931 2941 478 
Q 2500 -78 1738 -78 
Q 1113 -78 717 272 
Q 322 622 266 1200 
z
" transform="scale(0.015625)"/>
       </defs>
       <use xlink:href="#ArialMT-30"/>
       <use xlink:href="#ArialMT-2e" x="55.615234"/>
       <use xlink:href="#ArialMT-32" x="83.398438"/>
       <use xlink:href="#ArialMT-35" x="139.013672"/>
      </g>
     </g>
    </g>
    <g id="xtick_3">
     <g id="line2d_3">
      <g>
       <use xlink:href="#m5e42c2f7a9" x="74.228957" y="128.16" style="fill: #262626; stroke: #262626; stroke-width: 0.8"/>
      </g>
     </g>
     <g id="text_3">
      <!-- 0.50 -->
      <g style="fill: #262626" transform="translate(64.498488 142.317813) scale(0.1 -0.1)">
       <use xlink:href="#ArialMT-30"/>
       <use xlink:href="#ArialMT-2e" x="55.615234"/>
       <use xlink:href="#ArialMT-35" x="83.398438"/>
       <use xlink:href="#ArialMT-30" x="139.013672"/>
      </g>
     </g>
    </g>
    <g id="xtick_4">
     <g id="line2d_4">
      <g>
       <use xlink:href="#m5e42c2f7a9" x="101.914479" y="128.16" style="fill: #262626; stroke: #262626; stroke-width: 0.8"/>
      </g>
     </g>
     <g id="text_4">
      <!-- 0.75 -->
      <g style="fill: #262626" transform="translate(92.18401 142.317813) scale(0.1 -0.1)">
       <defs>
        <path id="ArialMT-37" d="M 303 3981 
L 303 4522 
L 3269 4522 
L 3269 4084 
Q 2831 3619 2401 2847 
Q 1972 2075 1738 1259 
Q 1569 684 1522 0 
L 944 0 
Q 953 541 1156 1306 
Q 1359 2072 1739 2783 
Q 2119 3494 2547 3981 
L 303 3981 
z
" transform="scale(0.015625)"/>
       </defs>
       <use xlink:href="#ArialMT-30"/>
       <use xlink:href="#ArialMT-2e" x="55.615234"/>
       <use xlink:href="#ArialMT-37" x="83.398438"/>
       <use xlink:href="#ArialMT-35" x="139.013672"/>
      </g>
     </g>
    </g>
    <g id="xtick_5">
     <g id="line2d_5">
      <g>
       <use xlink:href="#m5e42c2f7a9" x="129.6" y="128.16" style="fill: #262626; stroke: #262626; stroke-width: 0.8"/>
      </g>
     </g>
     <g id="text_5">
      <!-- 1.00 -->
      <g style="fill: #262626" transform="translate(119.869531 142.317813) scale(0.1 -0.1)">
       <defs>
        <path id="ArialMT-31" d="M 2384 0 
L 1822 0 
L 1822 3584 
Q 1619 3391 1289 3197 
Q 959 3003 697 2906 
L 697 3450 
Q 1169 3672 1522 3987 
Q 1875 4303 2022 4600 
L 2384 4600 
L 2384 0 
z
" transform="scale(0.015625)"/>
       </defs>
       <use xlink:href="#ArialMT-31"/>
       <use xlink:href="#ArialMT-2e" x="55.615234"/>
       <use xlink:href="#ArialMT-30" x="83.398438"/>
       <use xlink:href="#ArialMT-30" x="139.013672"/>
      </g>
     </g>
    </g>
    <g id="text_6">
     <!-- IL15 -->
     <g style="fill: #262626" transform="translate(64.069531 155.463125) scale(0.1 -0.1)">
      <defs>
       <path id="ArialMT-49" d="M 597 0 
L 597 4581 
L 1203 4581 
L 1203 0 
L 597 0 
z
" transform="scale(0.015625)"/>
       <path id="ArialMT-4c" d="M 469 0 
L 469 4581 
L 1075 4581 
L 1075 541 
L 3331 541 
L 3331 0 
L 469 0 
z
" transform="scale(0.015625)"/>
      </defs>
      <use xlink:href="#ArialMT-49"/>
      <use xlink:href="#ArialMT-4c" x="27.783203"/>
      <use xlink:href="#ArialMT-31" x="83.398438"/>
      <use xlink:href="#ArialMT-35" x="139.013672"/>
     </g>
    </g>
   </g>
   <g id="matplotlib.axis_2">
    <g id="ytick_1">
     <g id="line2d_6">
      <defs>
       <path id="ma219b1d691" d="M 0 0 
L -3.5 0 
" style="stroke: #262626; stroke-width: 0.8"/>
      </defs>
      <g>
       <use xlink:href="#ma219b1d691" x="18" y="107.223744" style="fill: #262626; stroke: #262626; stroke-width: 0.8"/>
      </g>
     </g>
     <g id="text_7">
      <!-- 0.20 -->
      <g style="fill: #262626" transform="translate(-8.460938 110.80265) scale(0.1 -0.1)">
       <use xlink:href="#ArialMT-30"/>
       <use xlink:href="#ArialMT-2e" x="55.615234"/>
       <use xlink:href="#ArialMT-32" x="83.398438"/>
       <use xlink:href="#ArialMT-30" x="139.013672"/>
      </g>
     </g>
    </g>
    <g id="ytick_2">
     <g id="line2d_7">
      <g>
       <use xlink:href="#ma219b1d691" x="18" y="79.892922" style="fill: #262626; stroke: #262626; stroke-width: 0.8"/>
      </g>
     </g>
     <g id="text_8">
      <!-- 0.25 -->
      <g style="fill: #262626" transform="translate(-8.460938 83.471828) scale(0.1 -0.1)">
       <use xlink:href="#ArialMT-30"/>
       <use xlink:href="#ArialMT-2e" x="55.615234"/>
       <use xlink:href="#ArialMT-32" x="83.398438"/>
       <use xlink:href="#ArialMT-35" x="139.013672"/>
      </g>
     </g>
    </g>
    <g id="ytick_3">
     <g id="line2d_8">
      <g>
       <use xlink:href="#ma219b1d691" x="18" y="52.562101" style="fill: #262626; stroke: #262626; stroke-width: 0.8"/>
      </g>
     </g>
     <g id="text_9">
      <!-- 0.30 -->
      <g style="fill: #262626" transform="translate(-8.460938 56.141007) scale(0.1 -0.1)">
       <defs>
        <path id="ArialMT-33" d="M 269 1209 
L 831 1284 
Q 928 806 1161 595 
Q 1394 384 1728 384 
Q 2125 384 2398 659 
Q 2672 934 2672 1341 
Q 2672 1728 2419 1979 
Q 2166 2231 1775 2231 
Q 1616 2231 1378 2169 
L 1441 2663 
Q 1497 2656 1531 2656 
Q 1891 2656 2178 2843 
Q 2466 3031 2466 3422 
Q 2466 3731 2256 3934 
Q 2047 4138 1716 4138 
Q 1388 4138 1169 3931 
Q 950 3725 888 3313 
L 325 3413 
Q 428 3978 793 4289 
Q 1159 4600 1703 4600 
Q 2078 4600 2393 4439 
Q 2709 4278 2876 4000 
Q 3044 3722 3044 3409 
Q 3044 3113 2884 2869 
Q 2725 2625 2413 2481 
Q 2819 2388 3044 2092 
Q 3269 1797 3269 1353 
Q 3269 753 2831 336 
Q 2394 -81 1725 -81 
Q 1122 -81 723 278 
Q 325 638 269 1209 
z
" transform="scale(0.015625)"/>
       </defs>
       <use xlink:href="#ArialMT-30"/>
       <use xlink:href="#ArialMT-2e" x="55.615234"/>
       <use xlink:href="#ArialMT-33" x="83.398438"/>
       <use xlink:href="#ArialMT-30" x="139.013672"/>
      </g>
     </g>
    </g>
    <g id="ytick_4">
     <g id="line2d_9">
      <g>
       <use xlink:href="#ma219b1d691" x="18" y="25.231279" style="fill: #262626; stroke: #262626; stroke-width: 0.8"/>
      </g>
     </g>
     <g id="text_10">
      <!-- 0.35 -->
      <g style="fill: #262626" transform="translate(-8.460938 28.810185) scale(0.1 -0.1)">
       <use xlink:href="#ArialMT-30"/>
       <use xlink:href="#ArialMT-2e" x="55.615234"/>
       <use xlink:href="#ArialMT-33" x="83.398438"/>
       <use xlink:href="#ArialMT-35" x="139.013672"/>
      </g>
     </g>
    </g>
    <g id="text_11">
     <!-- Intact&lt;1 -->
     <g style="fill: #262626" transform="translate(-14.448438 90.648906) rotate(-90) scale(0.1 -0.1)">
      <defs>
       <path id="ArialMT-6e" d="M 422 0 
L 422 3319 
L 928 3319 
L 928 2847 
Q 1294 3394 1984 3394 
Q 2284 3394 2536 3286 
Q 2788 3178 2913 3003 
Q 3038 2828 3088 2588 
Q 3119 2431 3119 2041 
L 3119 0 
L 2556 0 
L 2556 2019 
Q 2556 2363 2490 2533 
Q 2425 2703 2258 2804 
Q 2091 2906 1866 2906 
Q 1506 2906 1245 2678 
Q 984 2450 984 1813 
L 984 0 
L 422 0 
z
" transform="scale(0.015625)"/>
       <path id="ArialMT-74" d="M 1650 503 
L 1731 6 
Q 1494 -44 1306 -44 
Q 1000 -44 831 53 
Q 663 150 594 308 
Q 525 466 525 972 
L 525 2881 
L 113 2881 
L 113 3319 
L 525 3319 
L 525 4141 
L 1084 4478 
L 1084 3319 
L 1650 3319 
L 1650 2881 
L 1084 2881 
L 1084 941 
Q 1084 700 1114 631 
Q 1144 563 1211 522 
Q 1278 481 1403 481 
Q 1497 481 1650 503 
z
" transform="scale(0.015625)"/>
       <path id="ArialMT-61" d="M 2588 409 
Q 2275 144 1986 34 
Q 1697 -75 1366 -75 
Q 819 -75 525 192 
Q 231 459 231 875 
Q 231 1119 342 1320 
Q 453 1522 633 1644 
Q 813 1766 1038 1828 
Q 1203 1872 1538 1913 
Q 2219 1994 2541 2106 
Q 2544 2222 2544 2253 
Q 2544 2597 2384 2738 
Q 2169 2928 1744 2928 
Q 1347 2928 1158 2789 
Q 969 2650 878 2297 
L 328 2372 
Q 403 2725 575 2942 
Q 747 3159 1072 3276 
Q 1397 3394 1825 3394 
Q 2250 3394 2515 3294 
Q 2781 3194 2906 3042 
Q 3031 2891 3081 2659 
Q 3109 2516 3109 2141 
L 3109 1391 
Q 3109 606 3145 398 
Q 3181 191 3288 0 
L 2700 0 
Q 2613 175 2588 409 
z
M 2541 1666 
Q 2234 1541 1622 1453 
Q 1275 1403 1131 1340 
Q 988 1278 909 1158 
Q 831 1038 831 891 
Q 831 666 1001 516 
Q 1172 366 1500 366 
Q 1825 366 2078 508 
Q 2331 650 2450 897 
Q 2541 1088 2541 1459 
L 2541 1666 
z
" transform="scale(0.015625)"/>
       <path id="ArialMT-63" d="M 2588 1216 
L 3141 1144 
Q 3050 572 2676 248 
Q 2303 -75 1759 -75 
Q 1078 -75 664 370 
Q 250 816 250 1647 
Q 250 2184 428 2587 
Q 606 2991 970 3192 
Q 1334 3394 1763 3394 
Q 2303 3394 2647 3120 
Q 2991 2847 3088 2344 
L 2541 2259 
Q 2463 2594 2264 2762 
Q 2066 2931 1784 2931 
Q 1359 2931 1093 2626 
Q 828 2322 828 1663 
Q 828 994 1084 691 
Q 1341 388 1753 388 
Q 2084 388 2306 591 
Q 2528 794 2588 1216 
z
" transform="scale(0.015625)"/>
       <path id="ArialMT-3c" d="M 350 2003 
L 350 2528 
L 3384 3809 
L 3384 3250 
L 978 2263 
L 3384 1266 
L 3384 706 
L 350 2003 
z
" transform="scale(0.015625)"/>
      </defs>
      <use xlink:href="#ArialMT-49"/>
      <use xlink:href="#ArialMT-6e" x="27.783203"/>
      <use xlink:href="#ArialMT-74" x="83.398438"/>
      <use xlink:href="#ArialMT-61" x="111.181641"/>
      <use xlink:href="#ArialMT-63" x="166.796875"/>
      <use xlink:href="#ArialMT-74" x="216.796875"/>
      <use xlink:href="#ArialMT-3c" x="244.580078"/>
      <use xlink:href="#ArialMT-31" x="302.978516"/>
     </g>
    </g>
   </g>
   <g id="PathCollection_1">
    <defs>
     <path id="mbc7308e9d0" d="M 0 3 
C 0.795609 3 1.55874 2.683901 2.12132 2.12132 
C 2.683901 1.55874 3 0.795609 3 0 
C 3 -0.795609 2.683901 -1.55874 2.12132 -2.12132 
C 1.55874 -2.683901 0.795609 -3 0 -3 
C -0.795609 -3 -1.55874 -2.683901 -2.12132 -2.12132 
C -2.683901 -1.55874 -3 -0.795609 -3 0 
C -3 0.795609 -2.683901 1.55874 -2.12132 2.12132 
C -1.55874 2.683901 -0.795609 3 0 3 
z
" style="stroke: #ff7f0e; stroke-opacity: 0.8"/>
    </defs>
    <g clip-path="url(#p84d253d87a)">
     <use xlink:href="#mbc7308e9d0" x="99.023873" y="88.794571" style="fill: #ff7f0e; fill-opacity: 0.8; stroke: #ff7f0e; stroke-opacity: 0.8"/>
     <use xlink:href="#mbc7308e9d0" x="91.282945" y="84.172929" style="fill: #ff7f0e; fill-opacity: 0.8; stroke: #ff7f0e; stroke-opacity: 0.8"/>
     <use xlink:href="#mbc7308e9d0" x="22.837963" y="83.984346" style="fill: #ff7f0e; fill-opacity: 0.8; stroke: #ff7f0e; stroke-opacity: 0.8"/>
     <use xlink:href="#mbc7308e9d0" x="76.451582" y="88.656823" style="fill: #ff7f0e; fill-opacity: 0.8; stroke: #ff7f0e; stroke-opacity: 0.8"/>
     <use xlink:href="#mbc7308e9d0" x="33.56262" y="100.702063" style="fill: #ff7f0e; fill-opacity: 0.8; stroke: #ff7f0e; stroke-opacity: 0.8"/>
     <use xlink:href="#mbc7308e9d0" x="62.720642" y="107.232489" style="fill: #ff7f0e; fill-opacity: 0.8; stroke: #ff7f0e; stroke-opacity: 0.8"/>
     <use xlink:href="#mbc7308e9d0" x="51.971296" y="99.289606" style="fill: #ff7f0e; fill-opacity: 0.8; stroke: #ff7f0e; stroke-opacity: 0.8"/>
     <use xlink:href="#mbc7308e9d0" x="86.894882" y="100.536438" style="fill: #ff7f0e; fill-opacity: 0.8; stroke: #ff7f0e; stroke-opacity: 0.8"/>
     <use xlink:href="#mbc7308e9d0" x="37.991911" y="97.549179" style="fill: #ff7f0e; fill-opacity: 0.8; stroke: #ff7f0e; stroke-opacity: 0.8"/>
     <use xlink:href="#mbc7308e9d0" x="63.632334" y="95.716375" style="fill: #ff7f0e; fill-opacity: 0.8; stroke: #ff7f0e; stroke-opacity: 0.8"/>
     <use xlink:href="#mbc7308e9d0" x="105.691414" y="84.257108" style="fill: #ff7f0e; fill-opacity: 0.8; stroke: #ff7f0e; stroke-opacity: 0.8"/>
     <use xlink:href="#mbc7308e9d0" x="88.495067" y="32.228516" style="fill: #ff7f0e; fill-opacity: 0.8; stroke: #ff7f0e; stroke-opacity: 0.8"/>
     <use xlink:href="#mbc7308e9d0" x="97.623139" y="22.32" style="fill: #ff7f0e; fill-opacity: 0.8; stroke: #ff7f0e; stroke-opacity: 0.8"/>
     <use xlink:href="#mbc7308e9d0" x="89.736447" y="90.923642" style="fill: #ff7f0e; fill-opacity: 0.8; stroke: #ff7f0e; stroke-opacity: 0.8"/>
     <use xlink:href="#mbc7308e9d0" x="95.594747" y="62.998101" style="fill: #ff7f0e; fill-opacity: 0.8; stroke: #ff7f0e; stroke-opacity: 0.8"/>
     <use xlink:href="#mbc7308e9d0" x="85.640406" y="36.177273" style="fill: #ff7f0e; fill-opacity: 0.8; stroke: #ff7f0e; stroke-opacity: 0.8"/>
     <use xlink:href="#mbc7308e9d0" x="119.597233" y="46.988253" style="fill: #ff7f0e; fill-opacity: 0.8; stroke: #ff7f0e; stroke-opacity: 0.8"/>
    </g>
   </g>
   <g id="PolyCollection_1">
    <defs>
     <path id="me08ba8af44" d="M 22.837963 -52.930427 
L 22.837963 -20.88 
L 23.81533 -21.618397 
L 24.792696 -22.361407 
L 25.770063 -23.109041 
L 26.747429 -23.793083 
L 27.724795 -24.393028 
L 28.702162 -24.995906 
L 29.679528 -25.722495 
L 30.656894 -26.435089 
L 31.634261 -26.98817 
L 32.611627 -27.543651 
L 33.588993 -28.101535 
L 34.56636 -28.661824 
L 35.543726 -29.266006 
L 36.521092 -29.887502 
L 37.498459 -30.511266 
L 38.475825 -31.136122 
L 39.453192 -31.764043 
L 40.430558 -32.395823 
L 41.407924 -33.030517 
L 42.385291 -33.668127 
L 43.362657 -34.308655 
L 44.340023 -34.952104 
L 45.31739 -35.598475 
L 46.294756 -36.147274 
L 47.272122 -36.665564 
L 48.249489 -37.357364 
L 49.226855 -38.225831 
L 50.204221 -38.895573 
L 51.181588 -39.534073 
L 52.158954 -40.148821 
L 53.136321 -40.766064 
L 54.113687 -41.385804 
L 55.091053 -42.01206 
L 56.06842 -42.43021 
L 57.045786 -43.248424 
L 58.023152 -44.021094 
L 59.000519 -44.632472 
L 59.977885 -45.242784 
L 60.955251 -45.829092 
L 61.932618 -46.469126 
L 62.909984 -47.022803 
L 63.88735 -47.455221 
L 64.864717 -48.321198 
L 65.842083 -48.895883 
L 66.81945 -49.662231 
L 67.796816 -50.186747 
L 68.774182 -50.543106 
L 69.751549 -51.185117 
L 70.728915 -51.547557 
L 71.706281 -51.959753 
L 72.683648 -52.346642 
L 73.661014 -52.994024 
L 74.63838 -53.652824 
L 75.615747 -53.971669 
L 76.593113 -54.242829 
L 77.570479 -54.515308 
L 78.547846 -54.788195 
L 79.525212 -55.062427 
L 80.502579 -55.435436 
L 81.479945 -55.628308 
L 82.457311 -55.88382 
L 83.434678 -56.275956 
L 84.412044 -56.642869 
L 85.38941 -56.98968 
L 86.366777 -57.297474 
L 87.344143 -57.502399 
L 88.321509 -57.970913 
L 89.298876 -58.243012 
L 90.276242 -58.37868 
L 91.253608 -58.525958 
L 92.230975 -58.80834 
L 93.208341 -59.033987 
L 94.185708 -59.323307 
L 95.163074 -59.553252 
L 96.14044 -59.862219 
L 97.117807 -60.061304 
L 98.095173 -60.256977 
L 99.072539 -60.451843 
L 100.049906 -60.650982 
L 101.027272 -60.851461 
L 102.004638 -61.145803 
L 102.982005 -61.449085 
L 103.959371 -61.752833 
L 104.936737 -62.025533 
L 105.914104 -62.221605 
L 106.89147 -62.402656 
L 107.868836 -62.58387 
L 108.846203 -62.765248 
L 109.823569 -62.946789 
L 110.800936 -63.128494 
L 111.778302 -63.310361 
L 112.755668 -63.492392 
L 113.733035 -63.674586 
L 114.710401 -63.856943 
L 115.687767 -64.039462 
L 116.665134 -64.222145 
L 117.6425 -64.40499 
L 118.619866 -64.587998 
L 119.597233 -64.703724 
L 119.597233 -114.500116 
L 119.597233 -114.500116 
L 118.619866 -113.595074 
L 117.6425 -112.818522 
L 116.665134 -111.804161 
L 115.687767 -110.699587 
L 114.710401 -109.367163 
L 113.733035 -108.382109 
L 112.755668 -107.508474 
L 111.778302 -106.636992 
L 110.800936 -105.670062 
L 109.823569 -104.658705 
L 108.846203 -103.628771 
L 107.868836 -102.499965 
L 106.89147 -101.521562 
L 105.914104 -100.633686 
L 104.936737 -99.57148 
L 103.959371 -98.616956 
L 102.982005 -97.666116 
L 102.004638 -96.674843 
L 101.027272 -95.691504 
L 100.049906 -94.709644 
L 99.072539 -93.817347 
L 98.095173 -92.870409 
L 97.117807 -92.03448 
L 96.14044 -91.279389 
L 95.163074 -90.459973 
L 94.185708 -89.522188 
L 93.208341 -88.631075 
L 92.230975 -87.740232 
L 91.253608 -86.982546 
L 90.276242 -85.981454 
L 89.298876 -85.136916 
L 88.321509 -84.400931 
L 87.344143 -83.716472 
L 86.366777 -82.926331 
L 85.38941 -82.3932 
L 84.412044 -81.852607 
L 83.434678 -81.378948 
L 82.457311 -80.863077 
L 81.479945 -80.165885 
L 80.502579 -79.56178 
L 79.525212 -79.024366 
L 78.547846 -78.484538 
L 77.570479 -77.915467 
L 76.593113 -77.209487 
L 75.615747 -76.500923 
L 74.63838 -75.501464 
L 73.661014 -74.893515 
L 72.683648 -74.293065 
L 71.706281 -73.708329 
L 70.728915 -73.165997 
L 69.751549 -72.66575 
L 68.774182 -72.034539 
L 67.796816 -71.37498 
L 66.81945 -70.730902 
L 65.842083 -70.061381 
L 64.864717 -69.407314 
L 63.88735 -68.755197 
L 62.909984 -68.25726 
L 61.932618 -67.778329 
L 60.955251 -67.044753 
L 59.977885 -66.467879 
L 59.000519 -66.022385 
L 58.023152 -65.584604 
L 57.045786 -65.14325 
L 56.06842 -64.701332 
L 55.091053 -64.194503 
L 54.113687 -63.656744 
L 53.136321 -63.261502 
L 52.158954 -62.952855 
L 51.181588 -62.518545 
L 50.204221 -62.210551 
L 49.226855 -61.770979 
L 48.249489 -61.436683 
L 47.272122 -61.017992 
L 46.294756 -60.534232 
L 45.31739 -60.065678 
L 44.340023 -59.552282 
L 43.362657 -59.082073 
L 42.385291 -58.821104 
L 41.407924 -58.380396 
L 40.430558 -58.071567 
L 39.453192 -57.77949 
L 38.475825 -57.569107 
L 37.498459 -57.217329 
L 36.521092 -56.77098 
L 35.543726 -56.415087 
L 34.56636 -56.173143 
L 33.588993 -55.956698 
L 32.611627 -55.740506 
L 31.634261 -55.576178 
L 30.656894 -55.302084 
L 29.679528 -54.84679 
L 28.702162 -54.417286 
L 27.724795 -54.126316 
L 26.747429 -53.924324 
L 25.770063 -53.72107 
L 24.792696 -53.47402 
L 23.81533 -53.028473 
L 22.837963 -52.930427 
z
" style="stroke: #ffffff; stroke-opacity: 0.15"/>
    </defs>
    <g clip-path="url(#p84d253d87a)">
     <use xlink:href="#me08ba8af44" x="0" y="144" style="fill: #ff7f0e; fill-opacity: 0.15; stroke: #ffffff; stroke-opacity: 0.15"/>
    </g>
   </g>
   <g id="line2d_10">
    <path d="M 22.837963 104.212417 
L 23.81533 103.777389 
L 24.792696 103.341115 
L 25.770063 102.903596 
L 26.747429 102.46483 
L 27.724795 102.024819 
L 28.702162 101.583562 
L 29.679528 101.141058 
L 30.656894 100.697309 
L 31.634261 100.252313 
L 32.611627 99.806071 
L 33.588993 99.358584 
L 34.56636 98.90985 
L 35.543726 98.459871 
L 36.521092 98.008646 
L 37.498459 97.556176 
L 38.475825 97.10246 
L 39.453192 96.647499 
L 40.430558 96.191294 
L 41.407924 95.733845 
L 42.385291 95.275151 
L 43.362657 94.815214 
L 44.340023 94.354033 
L 45.31739 93.89161 
L 46.294756 93.427944 
L 47.272122 92.963037 
L 48.249489 92.496888 
L 49.226855 92.029499 
L 50.204221 91.560869 
L 51.181588 91.091 
L 52.158954 90.619892 
L 53.136321 90.147546 
L 54.113687 89.673962 
L 55.091053 89.199142 
L 56.06842 88.723086 
L 57.045786 88.245795 
L 58.023152 87.767269 
L 59.000519 87.287511 
L 59.977885 86.80652 
L 60.955251 86.324298 
L 61.932618 85.840845 
L 62.909984 85.356163 
L 63.88735 84.870253 
L 64.864717 84.383116 
L 65.842083 83.894752 
L 66.81945 83.405164 
L 67.796816 82.914352 
L 68.774182 82.422318 
L 69.751549 81.929063 
L 70.728915 81.434587 
L 71.706281 80.938894 
L 72.683648 80.441983 
L 73.661014 79.943856 
L 74.63838 79.444516 
L 75.615747 78.943962 
L 76.593113 78.442198 
L 77.570479 77.939224 
L 78.547846 77.435041 
L 79.525212 76.929653 
L 80.502579 76.423059 
L 81.479945 75.915263 
L 82.457311 75.406266 
L 83.434678 74.896069 
L 84.412044 74.384674 
L 85.38941 73.872083 
L 86.366777 73.358299 
L 87.344143 72.843323 
L 88.321509 72.327156 
L 89.298876 71.809802 
L 90.276242 71.291262 
L 91.253608 70.771537 
L 92.230975 70.250631 
L 93.208341 69.728546 
L 94.185708 69.205283 
L 95.163074 68.680845 
L 96.14044 68.155234 
L 97.117807 67.628452 
L 98.095173 67.100502 
L 99.072539 66.571387 
L 100.049906 66.041107 
L 101.027272 65.509667 
L 102.004638 64.977069 
L 102.982005 64.443314 
L 103.959371 63.908406 
L 104.936737 63.372347 
L 105.914104 62.835141 
L 106.89147 62.296788 
L 107.868836 61.757293 
L 108.846203 61.216659 
L 109.823569 60.674887 
L 110.800936 60.13198 
L 111.778302 59.587943 
L 112.755668 59.042777 
L 113.733035 58.496485 
L 114.710401 57.949071 
L 115.687767 57.400538 
L 116.665134 56.850888 
L 117.6425 56.300125 
L 118.619866 55.748252 
L 119.597233 55.195272 
" clip-path="url(#p84d253d87a)" style="fill: none; stroke: #ff7f0e; stroke-width: 2.25; stroke-linecap: round"/>
   </g>
   <g id="patch_3">
    <path d="M 18 128.16 
L 18 17.28 
" style="fill: none; stroke: #262626; stroke-width: 0.8; stroke-linejoin: miter; stroke-linecap: square"/>
   </g>
   <g id="patch_4">
    <path d="M 129.6 128.16 
L 129.6 17.28 
" style="fill: none; stroke: #262626; stroke-width: 0.8; stroke-linejoin: miter; stroke-linecap: square"/>
   </g>
   <g id="patch_5">
    <path d="M 18 128.16 
L 129.6 128.16 
" style="fill: none; stroke: #262626; stroke-width: 0.8; stroke-linejoin: miter; stroke-linecap: square"/>
   </g>
   <g id="patch_6">
    <path d="M 18 17.28 
L 129.6 17.28 
" style="fill: none; stroke: #262626; stroke-width: 0.8; stroke-linejoin: miter; stroke-linecap: square"/>
   </g>
   <g id="text_12">
    <!-- rho=0.5, p=0.0297 -->
    <g style="fill: #262626" transform="translate(35.469227 52.562101) scale(0.1 -0.1)">
     <defs>
      <path id="ArialMT-72" d="M 416 0 
L 416 3319 
L 922 3319 
L 922 2816 
Q 1116 3169 1280 3281 
Q 1444 3394 1641 3394 
Q 1925 3394 2219 3213 
L 2025 2691 
Q 1819 2813 1613 2813 
Q 1428 2813 1281 2702 
Q 1134 2591 1072 2394 
Q 978 2094 978 1738 
L 978 0 
L 416 0 
z
" transform="scale(0.015625)"/>
      <path id="ArialMT-68" d="M 422 0 
L 422 4581 
L 984 4581 
L 984 2938 
Q 1378 3394 1978 3394 
Q 2347 3394 2619 3248 
Q 2891 3103 3008 2847 
Q 3125 2591 3125 2103 
L 3125 0 
L 2563 0 
L 2563 2103 
Q 2563 2525 2380 2717 
Q 2197 2909 1863 2909 
Q 1613 2909 1392 2779 
Q 1172 2650 1078 2428 
Q 984 2206 984 1816 
L 984 0 
L 422 0 
z
" transform="scale(0.015625)"/>
      <path id="ArialMT-6f" d="M 213 1659 
Q 213 2581 725 3025 
Q 1153 3394 1769 3394 
Q 2453 3394 2887 2945 
Q 3322 2497 3322 1706 
Q 3322 1066 3130 698 
Q 2938 331 2570 128 
Q 2203 -75 1769 -75 
Q 1072 -75 642 372 
Q 213 819 213 1659 
z
M 791 1659 
Q 791 1022 1069 705 
Q 1347 388 1769 388 
Q 2188 388 2466 706 
Q 2744 1025 2744 1678 
Q 2744 2294 2464 2611 
Q 2184 2928 1769 2928 
Q 1347 2928 1069 2612 
Q 791 2297 791 1659 
z
" transform="scale(0.015625)"/>
      <path id="ArialMT-3d" d="M 3381 2694 
L 356 2694 
L 356 3219 
L 3381 3219 
L 3381 2694 
z
M 3381 1303 
L 356 1303 
L 356 1828 
L 3381 1828 
L 3381 1303 
z
" transform="scale(0.015625)"/>
      <path id="ArialMT-2c" d="M 569 0 
L 569 641 
L 1209 641 
L 1209 0 
Q 1209 -353 1084 -570 
Q 959 -788 688 -906 
L 531 -666 
Q 709 -588 793 -436 
Q 878 -284 888 0 
L 569 0 
z
" transform="scale(0.015625)"/>
      <path id="ArialMT-20" transform="scale(0.015625)"/>
      <path id="ArialMT-70" d="M 422 -1272 
L 422 3319 
L 934 3319 
L 934 2888 
Q 1116 3141 1344 3267 
Q 1572 3394 1897 3394 
Q 2322 3394 2647 3175 
Q 2972 2956 3137 2557 
Q 3303 2159 3303 1684 
Q 3303 1175 3120 767 
Q 2938 359 2589 142 
Q 2241 -75 1856 -75 
Q 1575 -75 1351 44 
Q 1128 163 984 344 
L 984 -1272 
L 422 -1272 
z
M 931 1641 
Q 931 1000 1190 694 
Q 1450 388 1819 388 
Q 2194 388 2461 705 
Q 2728 1022 2728 1688 
Q 2728 2322 2467 2637 
Q 2206 2953 1844 2953 
Q 1484 2953 1207 2617 
Q 931 2281 931 1641 
z
" transform="scale(0.015625)"/>
      <path id="ArialMT-39" d="M 350 1059 
L 891 1109 
Q 959 728 1153 556 
Q 1347 384 1650 384 
Q 1909 384 2104 503 
Q 2300 622 2425 820 
Q 2550 1019 2634 1356 
Q 2719 1694 2719 2044 
Q 2719 2081 2716 2156 
Q 2547 1888 2255 1720 
Q 1963 1553 1622 1553 
Q 1053 1553 659 1965 
Q 266 2378 266 3053 
Q 266 3750 677 4175 
Q 1088 4600 1706 4600 
Q 2153 4600 2523 4359 
Q 2894 4119 3086 3673 
Q 3278 3228 3278 2384 
Q 3278 1506 3087 986 
Q 2897 466 2520 194 
Q 2144 -78 1638 -78 
Q 1100 -78 759 220 
Q 419 519 350 1059 
z
M 2653 3081 
Q 2653 3566 2395 3850 
Q 2138 4134 1775 4134 
Q 1400 4134 1122 3828 
Q 844 3522 844 3034 
Q 844 2597 1108 2323 
Q 1372 2050 1759 2050 
Q 2150 2050 2401 2323 
Q 2653 2597 2653 3081 
z
" transform="scale(0.015625)"/>
     </defs>
     <use xlink:href="#ArialMT-72"/>
     <use xlink:href="#ArialMT-68" x="33.300781"/>
     <use xlink:href="#ArialMT-6f" x="88.916016"/>
     <use xlink:href="#ArialMT-3d" x="144.53125"/>
     <use xlink:href="#ArialMT-30" x="202.929688"/>
     <use xlink:href="#ArialMT-2e" x="258.544922"/>
     <use xlink:href="#ArialMT-35" x="286.328125"/>
     <use xlink:href="#ArialMT-2c" x="341.943359"/>
     <use xlink:href="#ArialMT-20" x="369.726562"/>
     <use xlink:href="#ArialMT-70" x="397.509766"/>
     <use xlink:href="#ArialMT-3d" x="453.125"/>
     <use xlink:href="#ArialMT-30" x="511.523438"/>
     <use xlink:href="#ArialMT-2e" x="567.138672"/>
     <use xlink:href="#ArialMT-30" x="594.921875"/>
     <use xlink:href="#ArialMT-32" x="650.537109"/>
     <use xlink:href="#ArialMT-39" x="706.152344"/>
     <use xlink:href="#ArialMT-37" x="761.767578"/>
    </g>
   </g>
  </g>
 </g>
 <defs>
  <clipPath id="p84d253d87a">
   <rect x="18" y="17.28" width="111.6" height="110.88"/>
  </clipPath>
 </defs>
</svg>
